<svg height="1024" node-id="1" sillyvg="true" template-height="1024" template-width="1024" version="1.1" viewBox="0 0 1024 1024" width="1024" xmlns="http://www.w3.org/2000/svg" xmlns:xlink="http://www.w3.org/1999/xlink"><defs node-id="167"><linearGradient gradientUnits="objectBoundingBox" id="linearGradient-1" node-id="5" spreadMethod="pad" x1="0.5" x2="0.5" y1="1" y2="0"><stop offset="0" stop-color="#f8fafc"/><stop offset="1" stop-color="#d8dfeb"/></linearGradient><linearGradient gradientUnits="objectBoundingBox" id="linearGradient-2" node-id="8" spreadMethod="pad" x1="0.04466999" x2="0.986739" y1="0.66635585" y2="0.73500246"><stop offset="0" stop-color="#fafcff"/><stop offset="1" stop-color="#eef3fa"/></linearGradient><linearGradient gradientUnits="objectBoundingBox" id="linearGradient-5" node-id="12" spreadMethod="pad" x1="0.5" x2="0.22425976" y1="0" y2="0.81697065"><stop offset="0" stop-color="#fd2b58"/><stop offset="1" stop-color="#fd4972"/></linearGradient><linearGradient gradientUnits="objectBoundingBox" id="linearGradient1" node-id="187" spreadMethod="pad" x1="0.5" x2="0.5" y1="0" y2="1"><stop offset="0" stop-color="#fd4972"/><stop offset="1" stop-color="#fd2b58"/></linearGradient><linearGradient gradientUnits="objectBoundingBox" id="linearGradient-7" node-id="18" spreadMethod="pad" x1="0.4770311" x2="0.5229689" y1="0" y2="0.9136795"><stop offset="0" stop-color="#2297ff"/><stop offset="1" stop-color="#0f5eff"/></linearGradient><linearGradient gradientUnits="objectBoundingBox" id="linearGradient-8" node-id="21" spreadMethod="pad" x1="0.46739224" x2="0.5326078" y1="0" y2="0.9136795"><stop offset="0" stop-color="#2297ff"/><stop offset="1" stop-color="#0f5eff"/></linearGradient><linearGradient gradientUnits="objectBoundingBox" id="linearGradient-9" node-id="24" spreadMethod="pad" x1="0.4571502" x2="0.5428498" y1="0" y2="0.9136795"><stop offset="0" stop-color="#2297ff"/><stop offset="1" stop-color="#0f5eff"/></linearGradient><linearGradient gradientUnits="objectBoundingBox" id="linearGradient-10" node-id="27" spreadMethod="pad" x1="0.5" x2="0.5" y1="0" y2="1"><stop offset="0" stop-color="#fd4972"/><stop offset="1" stop-color="#fd2b58"/></linearGradient><linearGradient gradientUnits="objectBoundingBox" id="linearGradient-6" node-id="15" spreadMethod="pad" x1="0.5" x2="0.5" y1="0" y2="1"><stop offset="0" stop-color="#fd4972"/><stop offset="1" stop-color="#fd2b58"/></linearGradient><linearGradient gradientUnits="objectBoundingBox" id="linearGradient-11" node-id="30" spreadMethod="pad" x1="0.5" x2="0.5" y1="0" y2="1"><stop offset="0" stop-color="#fd4972"/><stop offset="1" stop-color="#fd2b58"/></linearGradient><linearGradient gradientUnits="objectBoundingBox" id="linearGradient-12" node-id="33" spreadMethod="pad" x1="0.45264268" x2="0.5473573" y1="0" y2="0.9136795"><stop offset="0" stop-color="#2297ff"/><stop offset="1" stop-color="#0f5eff"/></linearGradient><linearGradient gradientUnits="objectBoundingBox" id="linearGradient-15" node-id="41" spreadMethod="pad" x1="1" x2="0" y1="1" y2="1"><stop offset="0" stop-color="#2297ff"/><stop offset="1" stop-color="#0f5eff"/></linearGradient><linearGradient gradientUnits="objectBoundingBox" id="linearGradient-16" node-id="44" spreadMethod="pad" x1="1" x2="0" y1="1" y2="1"><stop offset="0" stop-color="#2297ff"/><stop offset="1" stop-color="#0f5eff"/></linearGradient><linearGradient gradientUnits="objectBoundingBox" id="linearGradient-17" node-id="47" spreadMethod="pad" x1="0.14089397" x2="0.7946979" y1="0.17227411" y2="0.88204503"><stop offset="0" stop-color="#2297ff"/><stop offset="1" stop-color="#0f5eff"/></linearGradient><linearGradient gradientUnits="objectBoundingBox" id="linearGradient-21" node-id="55" spreadMethod="pad" x1="0.64818525" x2="0.30414537" y1="0.67489535" y2="0.18892193"><stop offset="0" stop-color="#146eff" stop-opacity="0"/><stop offset="1" stop-color="#0f5eff" stop-opacity="0.92559004"/></linearGradient><linearGradient gradientUnits="objectBoundingBox" id="linearGradient-22" node-id="58" spreadMethod="pad" x1="0.37987655" x2="0.7355483" y1="0.10907729" y2="0.93762076"><stop offset="0" stop-color="#fdfeff"/><stop offset="1" stop-color="#d7e4ff"/></linearGradient><filter height="348.46555" id="filter-14" node-id="37" width="319.7091" x="-75.006065" y="-41.32172"><feOffset color-interpolation-filters="linearRGB" dx="0" dy="15" in="SourceAlpha" result="shadowOffsetOuter1"></feOffset><feGaussianBlur color-interpolation-filters="linearRGB" in="shadowOffsetOuter1" result="shadowBlurOuter1" stdDeviation="22.5 22.5"></feGaussianBlur><feColorMatrix color-interpolation-filters="linearRGB" in="shadowBlurOuter1" result="result3" type="matrix" values="0 0 0 0 0.3 0 0 0 0 0.36666667 0 0 0 0 0.5 0 0 0 0.1 0"></feColorMatrix></filter><filter height="286.30295" id="filter-20" node-id="51" width="286.36362" x="-75" y="-59.98729"><feOffset color-interpolation-filters="linearRGB" dx="0" dy="15" in="SourceAlpha" result="shadowOffsetOuter1"></feOffset><feGaussianBlur color-interpolation-filters="linearRGB" in="shadowOffsetOuter1" result="shadowBlurOuter1" stdDeviation="22.5 22.5"></feGaussianBlur><feColorMatrix color-interpolation-filters="linearRGB" in="shadowBlurOuter1" result="result3" type="matrix" values="0 0 0 0 0.05882353 0 0 0 0 0.36862746 0 0 0 0 1 0 0 0 0.24 0"></feColorMatrix></filter><mask height="127.24805" id="mask-4" maskUnits="userSpaceOnUse" node-id="82" width="127.272766" x="557.33325" y="838.6854"><path d="M 551.30 722.00 L 1045.20 722.00 L 1046.40 722.30 L 1047.40 722.90 L 1048.00 723.90 L 1048.20 725.10 L 1048.20 1000.80 L 1048.00 1001.90 L 1047.40 1002.90 L 1046.40 1003.60 L 1045.20 1003.80 L 551.30 1003.80 L 550.10 1003.60 L 549.10 1002.90 L 548.50 1002.00 L 548.20 1000.80 L 548.20 725.10 L 548.50 723.90 L 549.10 722.90 L 550.10 722.30 L 551.30 722.00 Z" fill="#ffffff" fill-rule="evenodd" node-id="285" stroke="none" target-height="281.8" target-width="499.99994" target-x="548.2" target-y="722"/></mask><mask height="142.55371" id="mask-19" maskUnits="userSpaceOnUse" node-id="147" width="127.70209" x="729.4391" y="350.0984"><path d="M 836.20 390.60 L 836.00 396.20 L 835.30 401.70 L 834.30 407.00 L 832.80 412.10 L 830.90 417.10 L 828.60 421.90 L 826.00 426.50 L 823.10 430.80 L 816.30 438.80 L 808.30 445.60 L 804.00 448.50 L 799.40 451.10 L 794.60 453.40 L 789.60 455.30 L 784.50 456.70 L 779.20 457.80 L 773.70 458.50 L 768.10 458.70 L 762.40 458.50 L 756.90 457.80 L 751.60 456.70 L 746.50 455.30 L 741.50 453.40 L 736.70 451.10 L 732.10 448.50 L 723.70 442.30 L 716.30 434.90 L 713.00 430.80 L 710.10 426.50 L 707.50 421.90 L 705.30 417.10 L 703.40 412.10 L 701.90 407.00 L 700.80 401.70 L 700.10 396.20 L 699.90 390.60 L 700.10 384.90 L 700.80 379.40 L 701.90 374.10 L 703.40 369.00 L 705.30 364.00 L 707.50 359.20 L 710.10 354.70 L 713.00 350.30 L 716.30 346.20 L 723.70 338.80 L 727.80 335.50 L 732.10 332.60 L 736.70 330.00 L 741.50 327.80 L 746.50 325.90 L 751.60 324.40 L 756.90 323.30 L 762.40 322.60 L 768.10 322.40 L 773.70 322.60 L 779.20 323.30 L 784.50 324.40 L 789.60 325.90 L 794.60 327.80 L 799.40 330.00 L 804.00 332.60 L 808.30 335.50 L 816.30 342.40 L 823.10 350.30 L 826.00 354.70 L 828.60 359.20 L 830.90 364.00 L 832.80 369.00 L 834.30 374.10 L 835.30 379.40 L 836.00 384.90 L 836.20 390.60 Z" fill="#ffffff" fill-rule="evenodd" node-id="292" stroke="none" target-height="136.30002" target-width="136.29999" target-x="699.9" target-y="322.4"/></mask><mask height="69.07623" id="mask1" maskUnits="userSpaceOnUse" node-id="296" width="69.09094" x="1472.788" y="717.80304"><path d="M 1575.50 752.30 L 1575.30 758.00 L 1574.60 763.50 L 1573.50 768.80 L 1572.00 773.90 L 1570.10 778.90 L 1567.90 783.70 L 1565.30 788.20 L 1562.40 792.60 L 1555.50 800.50 L 1551.70 804.10 L 1547.60 807.40 L 1543.20 810.30 L 1538.70 812.90 L 1533.90 815.10 L 1528.90 817.00 L 1523.80 818.50 L 1518.50 819.60 L 1513.00 820.30 L 1507.30 820.50 L 1501.70 820.30 L 1496.20 819.60 L 1490.90 818.50 L 1485.80 817.00 L 1480.80 815.10 L 1476.00 812.90 L 1471.40 810.30 L 1462.90 804.10 L 1455.60 796.70 L 1452.30 792.60 L 1449.40 788.20 L 1446.80 783.70 L 1442.60 773.90 L 1441.10 768.80 L 1440.10 763.50 L 1439.40 758.00 L 1439.20 752.30 L 1439.40 746.70 L 1440.10 741.20 L 1441.10 735.90 L 1442.60 730.80 L 1444.50 725.80 L 1446.80 721.00 L 1449.40 716.40 L 1455.60 708.00 L 1459.10 704.10 L 1462.90 700.60 L 1467.10 697.30 L 1471.40 694.40 L 1476.00 691.80 L 1480.80 689.60 L 1485.80 687.60 L 1490.90 686.20 L 1496.20 685.10 L 1501.70 684.40 L 1507.30 684.20 L 1513.00 684.40 L 1518.50 685.10 L 1523.80 686.20 L 1528.90 687.60 L 1533.90 689.60 L 1543.20 694.40 L 1547.60 697.30 L 1551.70 700.60 L 1555.50 704.10 L 1559.10 708.00 L 1562.40 712.10 L 1565.30 716.40 L 1567.90 721.00 L 1570.10 725.80 L 1572.00 730.80 L 1573.50 735.90 L 1574.60 741.20 L 1575.30 746.70 L 1575.50 752.30 Z" fill="#ffffff" fill-rule="evenodd" node-id="300" stroke="none" target-height="136.29999" target-width="136.30005" target-x="1439.2" target-y="684.2"/></mask></defs><g node-id="439"><path d="M 24.10 180.00 L 999.90 180.00 L 1004.10 180.80 L 1007.70 182.90 L 1010.30 186.00 L 1011.20 187.90 L 1012.00 192.10 L 1012.00 882.90 L 1011.80 885.30 L 1011.10 887.50 L 1010.00 889.60 L 1008.40 891.40 L 1006.60 893.00 L 1004.50 894.10 L 1002.30 894.80 L 999.90 895.00 L 24.10 895.00 L 19.90 894.20 L 16.30 892.10 L 13.70 889.00 L 12.80 887.10 L 12.00 882.90 L 12.00 192.10 L 12.80 187.90 L 14.90 184.30 L 18.00 181.70 L 19.90 180.80 L 24.10 180.00 Z" fill="#ffffff" fill-rule="evenodd" group-id="1" id="矩形" node-id="63" stroke="none" target-height="715" target-width="1000" target-x="12" target-y="180"/><g node-id="440"><path d="M 102.90 225.40 L 921.10 225.40 L 921.10 740.50 L 102.90 740.50 Z" fill="none" group-id="1,2" id="矩形" node-id="65" stroke="none" target-height="515.1" target-width="818.19995" target-x="102.9" target-y="225.4"/><g node-id="441"><path d="M 732.00 513.30 L 804.10 513.30 L 806.20 513.50 L 808.00 514.30 L 809.50 515.50 L 810.70 517.10 L 811.50 518.90 L 811.80 520.90 L 811.80 693.40 L 811.50 695.50 L 810.70 697.30 L 809.50 698.90 L 808.00 700.10 L 806.20 700.80 L 804.10 701.10 L 732.00 701.10 L 730.00 700.80 L 728.10 700.10 L 726.60 698.90 L 725.40 697.30 L 724.60 695.50 L 724.40 693.40 L 724.40 520.90 L 724.60 518.90 L 725.40 517.10 L 726.60 515.50 L 728.10 514.30 L 730.00 513.50 L 732.00 513.30 Z" fill="#f5f7fa" fill-rule="evenodd" group-id="1,2,3" id="矩形" node-id="67" stroke="none" target-height="187.79999" target-width="87.39996" target-x="724.4" target-y="513.3"/><path d="M 740.50 672.70 L 795.60 672.70 L 796.80 672.90 L 797.80 673.60 L 798.40 674.60 L 798.70 675.70 L 798.40 676.90 L 797.80 677.90 L 796.80 678.50 L 795.60 678.80 L 740.50 678.80 L 739.30 678.50 L 738.40 677.90 L 737.70 676.90 L 737.50 675.70 L 737.70 674.60 L 738.40 673.60 L 739.30 672.90 L 740.50 672.70 Z" fill="#ffffff" fill-rule="evenodd" group-id="1,2,3" id="矩形" node-id="68" stroke="none" target-height="6.0999756" target-width="61.200012" target-x="737.5" target-y="672.7"/><path d="M 740.50 655.20 L 795.60 655.20 L 796.80 655.50 L 797.80 656.10 L 798.40 657.10 L 798.70 658.30 L 798.40 659.40 L 797.80 660.40 L 796.80 661.10 L 795.60 661.30 L 740.50 661.30 L 739.30 661.10 L 738.40 660.40 L 737.70 659.40 L 737.50 658.30 L 737.70 657.10 L 738.40 656.10 L 739.30 655.50 L 740.50 655.20 Z" fill="#ffffff" fill-rule="evenodd" group-id="1,2,3" id="矩形备份-36" node-id="69" stroke="none" target-height="6.0999756" target-width="61.200012" target-x="737.5" target-y="655.2"/><path d="M 740.50 637.80 L 795.60 637.80 L 796.80 638.00 L 797.80 638.60 L 798.40 639.60 L 798.70 640.80 L 798.40 641.90 L 797.80 642.90 L 796.80 643.60 L 795.60 643.80 L 740.50 643.80 L 739.30 643.60 L 738.40 642.90 L 737.70 641.90 L 737.50 640.80 L 737.70 639.60 L 738.40 638.60 L 739.30 638.00 L 740.50 637.80 Z" fill="#ffffff" fill-rule="evenodd" group-id="1,2,3" id="矩形备份-37" node-id="70" stroke="none" target-height="6" target-width="61.200012" target-x="737.5" target-y="637.8"/><path d="M 740.50 620.30 L 795.60 620.30 L 796.80 620.50 L 797.80 621.20 L 798.40 622.20 L 798.70 623.30 L 798.40 624.50 L 797.80 625.50 L 796.80 626.10 L 795.60 626.30 L 740.50 626.30 L 739.30 626.10 L 738.40 625.50 L 737.70 624.50 L 737.50 623.30 L 737.70 622.20 L 738.40 621.20 L 739.30 620.50 L 740.50 620.30 Z" fill="#ffffff" fill-rule="evenodd" group-id="1,2,3" id="矩形备份-41" node-id="71" stroke="none" target-height="6" target-width="61.200012" target-x="737.5" target-y="620.3"/><path d="M 823.80 596.30 L 874.00 596.30 L 876.10 596.50 L 877.90 597.30 L 879.50 598.50 L 880.70 600.10 L 881.40 601.90 L 881.70 603.90 L 881.70 693.40 L 881.40 695.50 L 880.70 697.30 L 879.50 698.90 L 877.90 700.10 L 876.10 700.80 L 874.00 701.10 L 823.80 701.10 L 821.70 700.80 L 819.90 700.10 L 818.40 698.90 L 817.20 697.30 L 816.40 695.50 L 816.10 693.40 L 816.10 603.90 L 816.40 601.90 L 817.20 600.10 L 818.40 598.50 L 819.90 597.30 L 821.70 596.50 L 823.80 596.30 Z" fill="#ebeff5" fill-rule="evenodd" group-id="1,2,3" id="矩形备份-34" node-id="72" stroke="none" target-height="104.79999" target-width="65.60004" target-x="816.1" target-y="596.3"/><path d="M 662.10 596.30 L 712.30 596.30 L 714.40 596.50 L 716.20 597.30 L 717.70 598.50 L 718.90 600.10 L 719.70 601.90 L 720.00 603.90 L 720.00 693.40 L 719.70 695.50 L 718.90 697.30 L 717.70 698.90 L 716.20 700.10 L 714.40 700.80 L 712.30 701.10 L 662.10 701.10 L 660.00 700.80 L 658.20 700.10 L 656.70 698.90 L 655.50 697.30 L 654.70 695.50 L 654.40 693.40 L 654.40 603.90 L 654.70 601.90 L 655.50 600.10 L 656.70 598.50 L 658.20 597.30 L 660.00 596.50 L 662.10 596.30 Z" fill="#ebeff5" fill-rule="evenodd" group-id="1,2,3" id="矩形备份-35" node-id="73" stroke="none" target-height="104.79999" target-width="65.599976" target-x="654.4" target-y="596.3"/></g><g node-id="442"><path d="M 459.10 642.00 L 564.90 642.00 L 571.10 695.00 L 452.90 695.00 Z" fill="url(#linearGradient-1)" fill-rule="evenodd" group-id="1,2,4" id="矩形" node-id="75" stroke="none" target-height="53" target-width="118.19998" target-x="452.9" target-y="642"/><path d="M 392.30 695.00 L 631.70 695.00 L 632.90 695.30 L 633.80 695.90 L 634.50 696.90 L 634.70 698.10 L 634.50 699.20 L 633.80 700.20 L 632.90 700.90 L 631.70 701.10 L 392.30 701.10 L 391.10 700.90 L 390.20 700.20 L 389.50 699.20 L 389.30 698.10 L 389.50 696.90 L 390.20 695.90 L 391.10 695.30 L 392.30 695.00 Z" fill="#d8e0eb" fill-rule="evenodd" group-id="1,2,4" id="矩形" node-id="76" stroke="none" target-height="6.0999756" target-width="245.40002" target-x="389.3" target-y="695"/><path d="M 259.00 280.00 L 765.00 280.00 L 769.30 280.70 L 772.80 282.80 L 775.50 286.00 L 776.40 287.90 L 777.20 292.10 L 777.20 631.40 L 776.90 633.80 L 776.20 636.10 L 775.10 638.10 L 773.60 640.00 L 771.80 641.50 L 769.70 642.60 L 767.40 643.30 L 765.00 643.50 L 259.00 643.50 L 254.70 642.80 L 251.20 640.70 L 248.50 637.50 L 247.60 635.70 L 246.80 631.40 L 246.80 292.10 L 247.60 287.90 L 249.70 284.30 L 252.90 281.60 L 254.70 280.70 L 259.00 280.00 Z" fill="url(#linearGradient-2)" fill-rule="evenodd" group-id="1,2,4" id="矩形" node-id="77" stroke="none" target-height="363.5" target-width="530.4" target-x="246.8" target-y="280"/><path d="M 522.30 617.80 L 521.70 621.50 L 520.90 623.10 L 518.60 625.90 L 515.40 627.70 L 511.70 628.40 L 507.70 627.60 L 504.20 625.30 L 502.90 623.70 L 501.90 621.80 L 501.30 619.90 L 501.10 617.80 L 501.30 615.70 L 501.90 613.70 L 502.90 611.90 L 504.20 610.30 L 505.80 609.00 L 507.70 608.00 L 509.60 607.40 L 511.70 607.20 L 515.40 607.80 L 517.10 608.60 L 519.80 610.90 L 521.70 614.10 L 522.30 617.80 Z" fill="#d8e0eb" fill-rule="evenodd" group-id="1,2,4" id="椭圆形" node-id="78" stroke="none" target-height="21.200012" target-width="21.199982" target-x="501.1" target-y="607.2"/><path d="M 259.00 280.00 L 765.00 280.00 L 767.20 280.20 L 771.10 281.60 L 774.30 284.30 L 775.50 286.00 L 776.90 289.90 L 777.20 292.10 L 777.20 592.00 L 246.80 592.00 L 246.80 292.10 L 247.60 287.90 L 249.70 284.30 L 252.90 281.60 L 254.70 280.70 L 259.00 280.00 Z" fill="#323842" fill-rule="evenodd" group-id="1,2,4" id="矩形" node-id="79" stroke="none" target-height="312" target-width="530.4" target-x="246.8" target-y="280"/><g node-id="446"><g node-id="451"><g node-id="462"><path d="M 265.00 295.10 L 759.00 295.10 L 760.20 295.40 L 761.10 296.00 L 761.80 297.00 L 762.00 298.20 L 762.00 573.90 L 761.80 575.00 L 761.10 576.00 L 760.10 576.70 L 759.00 576.90 L 265.00 576.90 L 263.80 576.60 L 262.90 576.00 L 262.20 575.00 L 262.00 573.90 L 262.00 298.20 L 262.20 297.00 L 262.90 296.00 L 263.80 295.40 L 265.00 295.10 Z" fill="#ffffff" fill-rule="evenodd" group-id="1,2,4,8,13,24" node-id="329" stroke="none" target-height="281.80002" target-width="500" target-x="262" target-y="295.1"/></g><g node-id="463"><g node-id="468"><path d="M 334.70 422.40 L 340.20 422.70 L 345.50 423.50 L 350.50 424.80 L 355.40 426.50 L 360.00 428.80 L 364.40 431.40 L 368.40 434.50 L 372.20 437.90 L 375.70 441.70 L 378.70 445.70 L 381.30 450.10 L 383.60 454.80 L 385.40 459.60 L 386.70 464.60 L 387.50 469.90 L 387.80 475.40 L 387.50 480.90 L 386.70 486.20 L 385.40 491.20 L 383.60 496.00 L 381.30 500.70 L 378.70 505.10 L 375.70 509.10 L 372.20 512.90 L 368.40 516.30 L 364.40 519.30 L 360.00 522.00 L 355.40 524.20 L 350.50 526.00 L 345.50 527.30 L 340.20 528.10 L 334.70 528.40 L 329.20 528.10 L 324.00 527.30 L 318.90 526.00 L 314.10 524.20 L 309.40 522.00 L 305.10 519.30 L 301.00 516.30 L 297.20 512.90 L 293.80 509.10 L 290.80 505.10 L 288.10 500.70 L 285.90 496.00 L 284.10 491.20 L 282.80 486.20 L 282.00 480.90 L 281.70 475.40 L 282.00 469.90 L 282.80 464.60 L 284.10 459.60 L 285.90 454.80 L 288.10 450.10 L 290.80 445.70 L 293.80 441.70 L 297.20 437.90 L 301.00 434.50 L 305.10 431.40 L 309.40 428.80 L 314.10 426.50 L 318.90 424.80 L 324.00 423.50 L 329.20 422.70 L 334.70 422.40 Z M 334.70 431.50 L 330.20 431.70 L 325.80 432.40 L 321.60 433.40 L 317.60 434.90 L 313.80 436.80 L 310.10 439.00 L 306.80 441.50 L 303.70 444.30 L 300.80 447.50 L 298.30 450.80 L 296.10 454.40 L 294.20 458.30 L 292.80 462.30 L 291.70 466.50 L 291.00 470.80 L 290.80 475.40 L 291.00 480.00 L 291.70 484.30 L 292.80 488.50 L 294.20 492.50 L 296.10 496.40 L 298.30 500.00 L 300.80 503.30 L 303.70 506.50 L 306.80 509.30 L 310.10 511.80 L 313.80 514.00 L 317.60 515.90 L 321.60 517.30 L 325.80 518.40 L 330.20 519.10 L 334.70 519.30 L 339.30 519.10 L 343.60 518.40 L 347.80 517.30 L 351.80 515.90 L 355.70 514.00 L 359.30 511.80 L 362.70 509.30 L 365.80 506.50 L 368.60 503.30 L 371.20 500.00 L 373.30 496.40 L 375.20 492.50 L 376.70 488.50 L 377.80 484.30 L 378.40 480.00 L 378.70 475.40 L 378.40 470.80 L 377.80 466.50 L 376.70 462.30 L 375.20 458.30 L 373.30 454.40 L 371.20 450.80 L 368.60 447.50 L 365.80 444.30 L 362.70 441.50 L 359.30 439.00 L 355.70 436.80 L 351.80 434.90 L 347.80 433.40 L 343.60 432.40 L 339.30 431.70 L 334.70 431.50 Z" fill="#f7f8fa" fill-rule="nonzero" group-id="1,2,4,8,13,25,30" id="椭圆形" node-id="87" stroke="none" target-height="106.00003" target-width="106.099976" target-x="281.7" target-y="422.4"/><path d="M 334.70 422.40 L 337.00 423.00 L 338.70 424.60 L 339.10 425.70 L 339.10 428.20 L 337.90 430.10 L 336.00 431.30 L 330.20 431.70 L 325.80 432.40 L 321.60 433.40 L 317.60 434.90 L 313.80 436.80 L 310.10 439.00 L 306.80 441.50 L 303.70 444.30 L 300.80 447.50 L 298.30 450.80 L 296.10 454.40 L 294.20 458.30 L 292.80 462.30 L 291.70 466.50 L 291.00 470.80 L 290.80 475.40 L 291.00 480.00 L 291.70 484.30 L 292.80 488.50 L 294.20 492.50 L 296.10 496.40 L 298.30 500.00 L 300.80 503.30 L 303.70 506.50 L 306.80 509.30 L 310.10 511.80 L 313.80 514.00 L 317.60 515.90 L 321.60 517.30 L 325.80 518.40 L 330.20 519.10 L 334.70 519.30 L 339.30 519.10 L 343.60 518.40 L 347.80 517.30 L 351.80 515.90 L 355.70 514.00 L 359.30 511.80 L 362.70 509.30 L 365.80 506.50 L 368.60 503.30 L 371.20 500.00 L 373.30 496.40 L 375.20 492.50 L 376.70 488.50 L 377.80 484.30 L 378.40 480.00 L 378.80 474.20 L 380.00 472.20 L 382.00 471.00 L 384.40 471.00 L 385.50 471.50 L 387.10 473.10 L 387.80 475.40 L 387.50 480.90 L 386.70 486.20 L 385.40 491.20 L 383.60 496.00 L 381.30 500.70 L 378.70 505.10 L 375.70 509.10 L 372.20 512.90 L 368.40 516.30 L 364.40 519.30 L 360.00 522.00 L 355.40 524.20 L 350.50 526.00 L 345.50 527.30 L 340.20 528.10 L 334.70 528.40 L 329.20 528.10 L 324.00 527.30 L 318.90 526.00 L 314.10 524.20 L 309.40 522.00 L 305.10 519.30 L 301.00 516.30 L 297.20 512.90 L 293.80 509.10 L 290.80 505.10 L 288.10 500.70 L 285.90 496.00 L 284.10 491.20 L 282.80 486.20 L 282.00 480.90 L 281.70 475.40 L 282.00 469.90 L 282.80 464.60 L 284.10 459.60 L 285.90 454.80 L 288.10 450.10 L 290.80 445.70 L 293.80 441.70 L 297.20 437.90 L 301.00 434.50 L 305.10 431.40 L 309.40 428.80 L 314.10 426.50 L 318.90 424.80 L 324.00 423.50 L 329.20 422.70 L 334.70 422.40 Z" fill="#0f5eff" fill-rule="nonzero" group-id="1,2,4,8,13,25,30" id="路径" node-id="88" stroke="none" target-height="106.00003" target-width="106.099976" target-x="281.7" target-y="422.4"/><path d="M 334.70 436.00 L 342.70 436.80 L 350.10 439.10 L 356.80 442.70 L 362.60 447.50 L 367.40 453.40 L 371.00 460.10 L 373.30 467.40 L 374.10 475.40 L 373.30 483.40 L 371.00 490.70 L 367.40 497.40 L 362.60 503.20 L 356.80 508.00 L 350.10 511.70 L 342.70 514.00 L 334.70 514.80 L 326.70 514.00 L 319.40 511.70 L 312.70 508.00 L 306.90 503.20 L 302.10 497.40 L 298.40 490.70 L 296.10 483.40 L 295.30 475.40 L 296.10 467.40 L 298.40 460.10 L 302.10 453.40 L 306.90 447.50 L 312.70 442.70 L 319.40 439.10 L 326.70 436.80 L 334.70 436.00 Z M 334.70 445.10 L 330.60 445.40 L 326.60 446.20 L 322.90 447.50 L 319.40 449.20 L 316.20 451.40 L 313.30 454.00 L 310.70 456.90 L 308.60 460.10 L 306.80 463.60 L 305.50 467.30 L 304.70 471.20 L 304.40 475.40 L 304.70 479.60 L 305.50 483.50 L 306.80 487.20 L 308.60 490.70 L 310.70 493.90 L 313.30 496.80 L 316.20 499.40 L 319.40 501.50 L 322.90 503.30 L 326.60 504.60 L 330.60 505.40 L 334.70 505.70 L 338.90 505.40 L 342.80 504.60 L 346.50 503.30 L 350.00 501.50 L 353.20 499.40 L 356.20 496.80 L 358.70 493.90 L 360.90 490.70 L 362.60 487.20 L 363.90 483.50 L 364.70 479.60 L 365.00 475.40 L 364.70 471.20 L 363.90 467.30 L 362.60 463.60 L 360.90 460.10 L 358.70 456.90 L 356.20 454.00 L 353.20 451.40 L 350.00 449.20 L 346.50 447.50 L 342.80 446.20 L 338.90 445.40 L 334.70 445.10 Z" fill="#f7f8fa" fill-rule="nonzero" group-id="1,2,4,8,13,25,30" id="椭圆形" node-id="89" stroke="none" target-height="78.79999" target-width="78.80002" target-x="295.3" target-y="436"/><path d="M 334.70 436.00 L 337.00 436.60 L 338.70 438.30 L 339.30 440.60 L 338.70 442.80 L 337.00 444.50 L 336.00 444.90 L 330.60 445.40 L 326.60 446.20 L 322.90 447.50 L 319.40 449.20 L 316.20 451.40 L 313.30 454.00 L 310.70 456.90 L 308.60 460.10 L 306.80 463.60 L 305.50 467.30 L 304.70 471.20 L 304.40 475.40 L 304.70 479.60 L 305.50 483.50 L 306.80 487.20 L 308.60 490.70 L 310.70 493.90 L 313.30 496.80 L 316.20 499.40 L 319.40 501.50 L 322.90 503.30 L 326.60 504.60 L 330.60 505.40 L 334.70 505.70 L 338.10 505.50 L 341.30 505.00 L 347.50 502.90 L 354.20 498.80 L 355.30 498.60 L 357.60 498.90 L 359.50 500.30 L 360.40 502.50 L 360.10 504.80 L 358.70 506.70 L 355.10 509.10 L 351.40 511.10 L 347.40 512.70 L 343.30 513.80 L 339.10 514.50 L 334.70 514.80 L 326.70 514.00 L 319.40 511.70 L 312.70 508.00 L 306.90 503.20 L 302.10 497.40 L 298.40 490.70 L 296.10 483.40 L 295.30 475.40 L 296.10 467.40 L 298.40 460.10 L 302.10 453.40 L 306.90 447.50 L 312.70 442.70 L 319.40 439.10 L 326.70 436.80 L 334.70 436.00 Z" fill="url(#linearGradient-5)" fill-rule="nonzero" group-id="1,2,4,8,13,25,30" id="路径" node-id="90" stroke="none" target-height="78.79999" target-width="65.100006" target-x="295.3" target-y="436"/><path d="M 334.70 449.60 L 338.30 449.90 L 341.60 450.60 L 344.80 451.70 L 347.70 453.20 L 350.50 455.00 L 352.90 457.20 L 355.10 459.70 L 357.00 462.40 L 358.50 465.40 L 359.60 468.50 L 360.20 471.90 L 360.50 475.40 L 360.20 478.90 L 359.60 482.30 L 358.50 485.40 L 357.00 488.40 L 355.10 491.10 L 352.90 493.60 L 350.50 495.80 L 347.70 497.60 L 344.80 499.10 L 341.60 500.20 L 338.30 500.90 L 334.70 501.10 L 331.20 500.90 L 327.90 500.20 L 324.70 499.10 L 321.70 497.60 L 319.00 495.80 L 316.50 493.60 L 314.30 491.10 L 312.50 488.40 L 311.00 485.40 L 309.90 482.30 L 309.20 478.90 L 309.00 475.40 L 309.20 471.90 L 309.90 468.50 L 311.00 465.40 L 312.50 462.40 L 314.30 459.70 L 316.50 457.20 L 319.00 455.00 L 321.70 453.20 L 324.70 451.70 L 327.90 450.60 L 331.20 449.90 L 334.70 449.60 Z M 334.70 458.70 L 331.70 459.00 L 328.90 459.80 L 326.30 461.00 L 324.00 462.70 L 322.00 464.60 L 320.30 467.00 L 319.10 469.60 L 318.30 472.40 L 318.10 475.40 L 318.30 478.40 L 319.10 481.20 L 320.30 483.80 L 322.00 486.10 L 324.00 488.10 L 326.30 489.80 L 328.90 491.00 L 331.70 491.80 L 334.70 492.10 L 337.80 491.80 L 340.60 491.00 L 343.10 489.80 L 345.50 488.10 L 347.50 486.10 L 349.10 483.80 L 350.40 481.20 L 351.10 478.40 L 351.40 475.40 L 351.10 472.40 L 350.40 469.60 L 349.10 467.00 L 347.50 464.60 L 345.50 462.70 L 343.10 461.00 L 340.60 459.80 L 337.80 459.00 L 334.70 458.70 Z" fill="#f7f8fa" fill-rule="nonzero" group-id="1,2,4,8,13,25,30" id="椭圆形" node-id="91" stroke="none" target-height="51.5" target-width="51.5" target-x="309" target-y="449.6"/><path d="M 334.70 449.60 L 337.00 450.30 L 338.70 451.90 L 339.30 454.20 L 338.70 456.50 L 337.00 458.10 L 336.00 458.60 L 331.70 459.00 L 328.90 459.80 L 326.30 461.00 L 324.00 462.70 L 322.00 464.60 L 320.30 467.00 L 319.10 469.60 L 318.30 472.40 L 318.10 475.40 L 318.30 478.40 L 319.10 481.20 L 320.30 483.80 L 322.00 486.10 L 324.00 488.10 L 326.30 489.80 L 328.90 491.00 L 331.70 491.80 L 336.00 492.20 L 337.00 492.70 L 338.70 494.30 L 339.30 496.60 L 338.70 498.90 L 337.00 500.50 L 334.70 501.10 L 331.20 500.90 L 327.90 500.20 L 324.70 499.10 L 321.70 497.60 L 319.00 495.80 L 316.50 493.60 L 314.30 491.10 L 312.50 488.40 L 311.00 485.40 L 309.90 482.30 L 309.20 478.90 L 309.00 475.40 L 309.20 471.90 L 309.90 468.50 L 311.00 465.40 L 312.50 462.40 L 314.30 459.70 L 316.50 457.20 L 319.00 455.00 L 321.70 453.20 L 324.70 451.70 L 327.90 450.60 L 331.20 449.90 L 334.70 449.60 Z" fill="#0f5eff" fill-rule="nonzero" group-id="1,2,4,8,13,25,30" id="路径" node-id="92" stroke="none" target-height="51.5" target-width="30.299988" target-x="309" target-y="449.6"/></g></g></g><path d="M 445.30 431.50 L 448.80 432.20 L 451.80 434.10 L 453.70 437.10 L 454.40 440.60 L 454.40 531.40 L 454.20 533.20 L 452.90 536.50 L 450.40 539.00 L 447.10 540.40 L 443.50 540.40 L 440.30 539.00 L 437.80 536.50 L 436.40 533.20 L 436.20 531.40 L 436.20 440.60 L 436.90 437.10 L 438.90 434.10 L 441.90 432.20 L 445.30 431.50 Z" fill="#f7f8fa" fill-rule="evenodd" group-id="1,2,4,8" id="矩形" node-id="93" stroke="none" target-height="108.900024" target-width="18.199982" target-x="436.2" target-y="431.5"/><path d="M 445.30 448.10 L 448.80 448.80 L 451.80 450.80 L 453.70 453.70 L 454.40 457.20 L 454.40 531.40 L 454.20 533.20 L 452.90 536.50 L 450.40 539.00 L 447.10 540.40 L 443.50 540.40 L 440.30 539.00 L 437.80 536.50 L 436.40 533.20 L 436.20 531.40 L 436.40 455.40 L 437.80 452.20 L 438.90 450.80 L 441.90 448.80 L 445.30 448.10 Z" fill="url(#linearGradient1)" fill-rule="evenodd" group-id="1,2,4,8" id="矩形" node-id="94" stroke="none" target-height="92.30002" target-width="18.199982" target-x="436.2" target-y="448.1"/><path d="M 486.20 431.50 L 489.70 432.20 L 492.70 434.10 L 494.60 437.10 L 495.30 440.60 L 495.30 531.40 L 495.20 533.20 L 493.80 536.50 L 491.30 539.00 L 488.00 540.40 L 484.50 540.40 L 481.20 539.00 L 478.70 536.50 L 477.30 533.20 L 477.20 531.40 L 477.20 440.60 L 477.80 437.10 L 479.80 434.10 L 482.80 432.20 L 486.20 431.50 Z" fill="#f7f8fa" fill-rule="evenodd" group-id="1,2,4,8" id="矩形备份-110" node-id="95" stroke="none" target-height="108.900024" target-width="18.099976" target-x="477.2" target-y="431.5"/><path d="M 486.20 455.70 L 489.70 456.40 L 492.70 458.40 L 494.60 461.30 L 495.30 464.80 L 495.30 531.40 L 495.20 533.20 L 493.80 536.50 L 491.30 539.00 L 488.00 540.40 L 484.50 540.40 L 481.20 539.00 L 478.70 536.50 L 477.30 533.20 L 477.20 531.40 L 477.30 463.00 L 478.70 459.70 L 479.80 458.40 L 482.80 456.40 L 486.20 455.70 Z" fill="url(#linearGradient-7)" fill-rule="evenodd" group-id="1,2,4,8" id="矩形备份-110" node-id="96" stroke="none" target-height="84.70001" target-width="18.099976" target-x="477.2" target-y="455.7"/><path d="M 568.10 431.50 L 571.50 432.20 L 574.50 434.10 L 576.50 437.10 L 577.20 440.60 L 577.20 531.40 L 577.00 533.20 L 575.60 536.50 L 573.10 539.00 L 569.80 540.40 L 566.30 540.40 L 563.00 539.00 L 560.50 536.50 L 559.10 533.20 L 559.00 531.40 L 559.00 440.60 L 559.70 437.10 L 561.60 434.10 L 564.60 432.20 L 568.10 431.50 Z" fill="#f7f8fa" fill-rule="evenodd" group-id="1,2,4,8" id="矩形备份-112" node-id="97" stroke="none" target-height="108.900024" target-width="18.200012" target-x="559" target-y="431.5"/><path d="M 568.10 469.30 L 571.50 470.00 L 574.50 472.00 L 576.50 474.90 L 577.20 478.40 L 577.00 533.20 L 575.60 536.50 L 574.50 537.90 L 573.10 539.00 L 569.80 540.40 L 566.30 540.40 L 563.00 539.00 L 560.50 536.50 L 559.10 533.20 L 559.00 531.40 L 559.10 476.60 L 560.50 473.40 L 563.00 470.90 L 566.30 469.50 L 568.10 469.30 Z" fill="url(#linearGradient-8)" fill-rule="evenodd" group-id="1,2,4,8" id="矩形备份-112" node-id="98" stroke="none" target-height="71.10004" target-width="18.200012" target-x="559" target-y="469.3"/><path d="M 649.90 431.50 L 653.40 432.20 L 656.30 434.10 L 658.30 437.10 L 659.00 440.60 L 659.00 531.40 L 658.30 534.90 L 656.30 537.90 L 653.40 539.80 L 649.90 540.50 L 646.40 539.80 L 643.50 537.90 L 641.50 534.90 L 640.80 531.40 L 640.80 440.60 L 641.50 437.10 L 643.50 434.10 L 646.40 432.20 L 649.90 431.50 Z" fill="#f7f8fa" fill-rule="evenodd" group-id="1,2,4,8" id="矩形备份-114" node-id="99" stroke="none" target-height="109" target-width="18.200012" target-x="640.8" target-y="431.5"/><path d="M 649.90 478.40 L 653.40 479.10 L 656.30 481.10 L 658.30 484.00 L 659.00 487.50 L 658.80 533.20 L 657.40 536.50 L 654.90 539.00 L 651.70 540.40 L 649.90 540.50 L 646.40 539.80 L 643.50 537.90 L 641.50 534.90 L 640.80 531.40 L 641.00 485.70 L 642.30 482.50 L 644.80 479.90 L 648.10 478.60 L 649.90 478.40 Z" fill="url(#linearGradient-9)" fill-rule="evenodd" group-id="1,2,4,8" id="矩形备份-114" node-id="100" stroke="none" target-height="62.100006" target-width="18.200012" target-x="640.8" target-y="478.4"/><path d="M 527.20 431.50 L 530.60 432.20 L 533.60 434.10 L 535.60 437.10 L 536.20 440.60 L 536.20 531.40 L 536.10 533.20 L 534.70 536.50 L 532.20 539.00 L 528.90 540.40 L 525.40 540.40 L 522.10 539.00 L 519.60 536.50 L 518.20 533.20 L 518.10 531.40 L 518.10 440.60 L 518.80 437.10 L 520.70 434.10 L 523.70 432.20 L 527.20 431.50 Z" fill="#f7f8fa" fill-rule="evenodd" group-id="1,2,4,8" id="矩形备份-111" node-id="101" stroke="none" target-height="108.900024" target-width="18.100037" target-x="518.1" target-y="431.5"/><path d="M 527.20 489.00 L 530.60 489.70 L 533.60 491.70 L 535.60 494.60 L 536.20 498.10 L 536.10 533.20 L 534.70 536.50 L 533.60 537.90 L 532.20 539.00 L 528.90 540.40 L 525.40 540.40 L 522.10 539.00 L 519.60 536.50 L 518.20 533.20 L 518.10 531.40 L 518.20 496.30 L 519.60 493.10 L 522.10 490.60 L 525.40 489.20 L 527.20 489.00 Z" fill="url(#linearGradient-10)" fill-rule="evenodd" group-id="1,2,4,8" id="矩形备份-111" node-id="102" stroke="none" target-height="51.400024" target-width="18.100037" target-x="518.1" target-y="489"/><path d="M 609.00 431.50 L 612.40 432.20 L 615.40 434.10 L 617.40 437.10 L 618.10 440.60 L 618.10 531.40 L 617.90 533.20 L 616.50 536.50 L 614.00 539.00 L 610.80 540.40 L 607.20 540.40 L 603.90 539.00 L 601.40 536.50 L 600.10 533.20 L 599.90 531.40 L 599.90 440.60 L 600.60 437.10 L 602.50 434.10 L 605.50 432.20 L 609.00 431.50 Z" fill="#f7f8fa" fill-rule="evenodd" group-id="1,2,4,8" id="矩形备份-113" node-id="103" stroke="none" target-height="108.900024" target-width="18.199951" target-x="599.9" target-y="431.5"/><path d="M 609.00 448.10 L 612.40 448.80 L 615.40 450.80 L 617.40 453.70 L 618.10 457.20 L 618.10 531.40 L 617.90 533.20 L 616.50 536.50 L 614.00 539.00 L 610.80 540.40 L 607.20 540.40 L 603.90 539.00 L 601.40 536.50 L 600.10 533.20 L 599.90 531.40 L 600.10 455.40 L 601.40 452.20 L 603.90 449.70 L 607.20 448.30 L 609.00 448.10 Z" fill="url(#linearGradient-6)" fill-rule="evenodd" group-id="1,2,4,8" id="矩形备份-113" node-id="104" stroke="none" target-height="92.30002" target-width="18.199951" target-x="599.9" target-y="448.1"/><path d="M 690.80 431.50 L 694.30 432.20 L 697.20 434.10 L 699.20 437.10 L 699.90 440.60 L 699.90 531.40 L 699.70 533.20 L 698.40 536.50 L 695.80 539.00 L 692.60 540.40 L 689.00 540.40 L 685.70 539.00 L 683.20 536.50 L 681.90 533.20 L 681.70 531.40 L 681.70 440.60 L 682.40 437.10 L 684.40 434.10 L 687.30 432.20 L 690.80 431.50 Z" fill="#f7f8fa" fill-rule="evenodd" group-id="1,2,4,8" id="矩形备份-115" node-id="105" stroke="none" target-height="108.900024" target-width="18.200012" target-x="681.7" target-y="431.5"/><path d="M 690.80 457.20 L 694.30 457.90 L 697.20 459.90 L 699.20 462.80 L 699.90 466.30 L 699.90 531.40 L 699.70 533.20 L 698.40 536.50 L 695.80 539.00 L 692.60 540.40 L 689.00 540.40 L 685.70 539.00 L 684.40 537.90 L 682.40 534.90 L 681.70 531.40 L 681.90 464.50 L 683.20 461.30 L 684.40 459.90 L 687.30 457.90 L 690.80 457.20 Z" fill="url(#linearGradient-11)" fill-rule="evenodd" group-id="1,2,4,8" id="矩形备份-115" node-id="106" stroke="none" target-height="83.20001" target-width="18.200012" target-x="681.7" target-y="457.2"/><path d="M 731.70 431.50 L 735.20 432.20 L 738.10 434.10 L 740.10 437.10 L 740.80 440.60 L 740.80 531.40 L 740.60 533.20 L 739.30 536.50 L 736.70 539.00 L 733.50 540.40 L 729.90 540.40 L 726.70 539.00 L 724.10 536.50 L 722.80 533.20 L 722.60 531.40 L 722.60 440.60 L 723.30 437.10 L 725.30 434.10 L 728.20 432.20 L 731.70 431.50 Z" fill="#f7f8fa" fill-rule="evenodd" group-id="1,2,4,8" id="矩形备份-116" node-id="107" stroke="none" target-height="108.900024" target-width="18.200012" target-x="722.6" target-y="431.5"/><path d="M 731.70 481.50 L 735.20 482.10 L 738.10 484.10 L 740.10 487.10 L 740.80 490.50 L 740.60 533.20 L 739.30 536.50 L 738.10 537.90 L 736.70 539.00 L 733.50 540.40 L 729.90 540.40 L 726.70 539.00 L 724.10 536.50 L 722.80 533.20 L 722.60 531.40 L 722.80 488.80 L 724.10 485.50 L 725.30 484.10 L 728.20 482.10 L 731.70 481.50 Z" fill="url(#linearGradient-12)" fill-rule="evenodd" group-id="1,2,4,8" id="矩形备份-116" node-id="108" stroke="none" target-height="58.900024" target-width="18.200012" target-x="722.6" target-y="481.5"/><path d="M 413.50 420.90 L 413.50 551.10 L 412.00 551.10 L 412.00 420.90 Z" fill="#f7f8fa" fill-rule="nonzero" group-id="1,2,4,8" id="直线-8" node-id="109" stroke="none" target-height="130.19998" target-width="1.5" target-x="412" target-y="420.9"/><g node-id="452"><path d="M 295.30 540.50 L 374.10 540.50 L 375.30 540.80 L 376.30 541.40 L 376.90 542.40 L 377.20 543.60 L 376.90 549.30 L 376.30 550.20 L 375.30 550.90 L 374.10 551.10 L 295.30 551.10 L 294.10 550.90 L 293.20 550.20 L 292.50 549.30 L 292.30 548.10 L 292.50 542.40 L 293.20 541.40 L 294.10 540.80 L 295.30 540.50 Z" fill="#dde5f0" fill-opacity="0.5102425" fill-rule="evenodd" group-id="1,2,4,8,14" id="矩形" node-id="110" stroke="none" target-height="10.599976" target-width="84.900024" target-x="292.3" target-y="540.5"/></g><path d="M 762.00 396.60 L 762.00 398.10 L 262.00 398.10 L 262.00 396.60 Z" fill="#f7f8fa" fill-rule="nonzero" group-id="1,2,4,8" id="直线-7" node-id="111" stroke="none" target-height="1.5" target-width="500" target-x="262" target-y="396.6"/><g node-id="453"><path d="M 286.20 358.80 L 371.10 358.80 L 372.30 359.00 L 373.20 359.60 L 373.90 360.60 L 374.10 361.80 L 374.10 373.90 L 373.90 375.10 L 373.20 376.00 L 372.30 376.70 L 371.10 376.90 L 286.20 376.90 L 285.10 376.70 L 284.10 376.00 L 283.50 375.10 L 283.20 373.90 L 283.20 361.80 L 283.50 360.60 L 284.10 359.60 L 285.10 359.00 L 286.20 358.80 Z" fill="#dde5f0" fill-rule="evenodd" group-id="1,2,4,8,15" id="矩形" node-id="113" stroke="none" target-height="18.100006" target-width="90.899994" target-x="283.2" target-y="358.8"/><g node-id="464"><path d="M 286.20 343.60 L 312.00 343.60 L 313.20 343.80 L 314.10 344.50 L 314.80 345.40 L 315.00 349.70 L 314.80 350.80 L 314.10 351.80 L 313.20 352.40 L 312.00 352.70 L 286.20 352.70 L 285.10 352.40 L 284.10 351.80 L 283.50 350.80 L 283.20 346.60 L 283.50 345.40 L 284.10 344.50 L 285.10 343.80 L 286.20 343.60 Z" fill="#dde5f0" fill-opacity="0.5102425" fill-rule="evenodd" group-id="1,2,4,8,15,26" id="矩形备份-17" node-id="114" stroke="none" target-height="9.100006" target-width="31.799988" target-x="283.2" target-y="343.6"/></g></g><g node-id="454"><path d="M 409.00 358.80 L 493.80 358.80 L 495.00 359.00 L 496.00 359.60 L 496.60 360.60 L 496.80 361.80 L 496.80 373.90 L 496.60 375.10 L 496.00 376.00 L 495.00 376.70 L 493.80 376.90 L 409.00 376.90 L 407.80 376.70 L 406.80 376.00 L 406.20 375.10 L 405.90 373.90 L 405.90 361.80 L 406.20 360.60 L 406.80 359.60 L 407.80 359.00 L 409.00 358.80 Z" fill="#dde5f0" fill-rule="evenodd" group-id="1,2,4,8,16" id="矩形备份-51" node-id="116" stroke="none" target-height="18.100006" target-width="90.899994" target-x="405.9" target-y="358.8"/><g node-id="465"><path d="M 409.00 343.60 L 434.70 343.60 L 435.90 343.80 L 436.90 344.50 L 437.50 345.40 L 437.80 346.60 L 437.50 350.80 L 436.90 351.80 L 435.90 352.40 L 434.70 352.70 L 409.00 352.70 L 407.80 352.40 L 406.80 351.80 L 406.20 350.80 L 405.90 346.60 L 406.20 345.40 L 406.80 344.50 L 407.80 343.80 L 409.00 343.60 Z" fill="#dde5f0" fill-opacity="0.5102425" fill-rule="evenodd" group-id="1,2,4,8,16,27" id="矩形备份-52" node-id="117" stroke="none" target-height="9.100006" target-width="31.899994" target-x="405.9" target-y="343.6"/></g></g><g node-id="455"><path d="M 530.20 358.80 L 615.00 358.80 L 616.20 359.00 L 617.20 359.60 L 617.80 360.60 L 618.10 361.80 L 618.10 373.90 L 617.80 375.10 L 617.20 376.00 L 616.20 376.70 L 615.00 376.90 L 530.20 376.90 L 529.00 376.70 L 528.00 376.00 L 527.40 375.10 L 527.20 373.90 L 527.20 361.80 L 527.40 360.60 L 528.00 359.60 L 529.00 359.00 L 530.20 358.80 Z" fill="#dde5f0" fill-rule="evenodd" group-id="1,2,4,8,17" id="矩形备份-51" node-id="119" stroke="none" target-height="18.100006" target-width="90.89996" target-x="527.2" target-y="358.8"/><g node-id="466"><path d="M 530.20 343.60 L 555.90 343.60 L 557.10 343.80 L 558.10 344.50 L 558.70 345.40 L 559.00 346.60 L 558.70 350.80 L 558.10 351.80 L 557.10 352.40 L 555.90 352.70 L 530.20 352.70 L 529.00 352.40 L 528.00 351.80 L 527.40 350.80 L 527.20 346.60 L 527.40 345.40 L 528.00 344.50 L 529.00 343.80 L 530.20 343.60 Z" fill="#dde5f0" fill-opacity="0.5102425" fill-rule="evenodd" group-id="1,2,4,8,17,28" id="矩形备份-52" node-id="120" stroke="none" target-height="9.100006" target-width="31.799988" target-x="527.2" target-y="343.6"/></g></g><g node-id="456"><path d="M 652.90 358.80 L 737.80 358.80 L 738.90 359.00 L 739.90 359.60 L 740.50 360.60 L 740.80 361.80 L 740.80 373.90 L 740.60 375.10 L 739.90 376.00 L 738.90 376.70 L 737.80 376.90 L 652.90 376.90 L 651.70 376.70 L 650.80 376.00 L 650.10 375.10 L 649.90 373.90 L 649.90 361.80 L 650.10 360.60 L 650.80 359.60 L 651.70 359.00 L 652.90 358.80 Z" fill="#dde5f0" fill-rule="evenodd" group-id="1,2,4,8,18" id="矩形备份-51" node-id="122" stroke="none" target-height="18.100006" target-width="90.89996" target-x="649.9" target-y="358.8"/><g node-id="467"><path d="M 652.90 343.60 L 678.70 343.60 L 679.90 343.80 L 680.80 344.50 L 681.50 345.40 L 681.70 346.60 L 681.50 350.80 L 680.80 351.80 L 679.90 352.40 L 678.70 352.70 L 652.90 352.70 L 651.70 352.40 L 650.80 351.80 L 650.10 350.80 L 649.90 346.60 L 650.10 345.40 L 650.80 344.50 L 651.70 343.80 L 652.90 343.60 Z" fill="#dde5f0" fill-opacity="0.5102425" fill-rule="evenodd" group-id="1,2,4,8,18,29" id="矩形备份-52" node-id="123" stroke="none" target-height="9.100006" target-width="31.799988" target-x="649.9" target-y="343.6"/></g></g><path d="M 761.20 324.70 L 761.20 326.20 L 262.80 326.20 L 262.80 324.70 Z" fill="#f7f8fa" fill-rule="nonzero" group-id="1,2,4,8" id="直线-16" node-id="124" stroke="none" target-height="1.5" target-width="498.40002" target-x="262.8" target-y="324.7"/><path d="M 281.70 310.30 L 281.50 311.50 L 280.40 313.50 L 278.40 314.60 L 277.20 314.80 L 275.90 314.60 L 273.90 313.50 L 272.80 311.50 L 272.60 310.30 L 272.80 309.00 L 273.90 307.10 L 275.90 305.90 L 277.20 305.70 L 278.40 305.90 L 280.40 307.10 L 281.50 309.00 L 281.70 310.30 Z" fill="#f54444" fill-rule="evenodd" group-id="1,2,4,8" id="椭圆形" node-id="125" stroke="none" target-height="9.099976" target-width="9.100006" target-x="272.6" target-y="305.7"/><path d="M 299.90 310.30 L 299.70 311.50 L 298.50 313.50 L 296.60 314.60 L 295.30 314.80 L 294.10 314.60 L 292.10 313.50 L 291.00 311.50 L 290.80 310.30 L 291.00 309.00 L 292.10 307.10 L 294.10 305.90 L 295.30 305.70 L 296.60 305.90 L 298.50 307.10 L 299.70 309.00 L 299.90 310.30 Z" fill="#ffc418" fill-rule="evenodd" group-id="1,2,4,8" id="椭圆形备份-25" node-id="126" stroke="none" target-height="9.099976" target-width="9.100006" target-x="290.8" target-y="305.7"/><path d="M 318.10 310.30 L 317.90 311.50 L 316.70 313.50 L 314.70 314.60 L 313.50 314.80 L 311.20 314.20 L 309.60 312.60 L 309.10 311.50 L 309.00 310.30 L 309.60 308.00 L 311.20 306.30 L 313.50 305.70 L 314.70 305.90 L 316.70 307.10 L 317.90 309.00 L 318.10 310.30 Z" fill="#39e015" fill-rule="evenodd" group-id="1,2,4,8" id="椭圆形备份-26" node-id="127" stroke="none" target-height="9.099976" target-width="9.100006" target-x="309" target-y="305.7"/></g></g><g node-id="443"><g node-id="447"><g node-id="457"><path d="M 255.90 477.30 L 258.70 477.60 L 261.20 478.30 L 263.60 479.40 L 265.70 480.90 L 267.50 482.70 L 269.00 484.80 L 270.10 487.20 L 270.80 489.70 L 271.10 492.50 L 331.70 492.50 L 334.10 492.80 L 336.30 493.70 L 338.10 495.10 L 339.50 497.00 L 340.50 499.10 L 340.80 501.60 L 340.80 666.70 L 340.50 669.10 L 339.50 671.30 L 338.10 673.10 L 336.30 674.50 L 334.10 675.40 L 331.70 675.80 L 180.20 675.80 L 177.70 675.40 L 175.60 674.50 L 173.80 673.10 L 172.30 671.30 L 171.40 669.10 L 171.10 666.70 L 171.10 501.60 L 171.40 499.10 L 172.30 497.00 L 173.80 495.10 L 175.60 493.70 L 177.70 492.80 L 180.20 492.50 L 240.80 492.50 L 241.00 489.70 L 241.70 487.20 L 242.90 484.80 L 244.40 482.70 L 246.20 480.90 L 248.30 479.40 L 250.60 478.30 L 253.20 477.60 L 255.90 477.30 Z" fill="#000000" fill-rule="evenodd" filter="url(#filter-14)" group-id="1,2,5,9,19" node-id="404" stroke="none" target-height="198.5" target-width="169.69998" target-x="171.1" target-y="477.3"/></g><path d="M 255.90 477.30 L 258.70 477.60 L 261.20 478.30 L 263.60 479.40 L 265.70 480.90 L 267.50 482.70 L 269.00 484.80 L 270.10 487.20 L 270.80 489.70 L 271.10 492.50 L 331.70 492.50 L 334.10 492.80 L 336.30 493.70 L 338.10 495.10 L 339.50 497.00 L 340.50 499.10 L 340.80 501.60 L 340.80 666.70 L 340.50 669.10 L 339.50 671.30 L 338.10 673.10 L 336.30 674.50 L 334.10 675.40 L 331.70 675.80 L 180.20 675.80 L 177.70 675.40 L 175.60 674.50 L 173.80 673.10 L 172.30 671.30 L 171.40 669.10 L 171.10 666.70 L 171.10 501.60 L 171.40 499.10 L 172.30 497.00 L 173.80 495.10 L 175.60 493.70 L 177.70 492.80 L 180.20 492.50 L 240.80 492.50 L 241.00 489.70 L 241.70 487.20 L 242.90 484.80 L 244.40 482.70 L 246.20 480.90 L 248.30 479.40 L 250.60 478.30 L 253.20 477.60 L 255.90 477.30 Z" fill="#ffffff" fill-rule="evenodd" group-id="1,2,5,9,20" node-id="409" stroke="none" target-height="198.5" target-width="169.69998" target-x="171.1" target-y="477.3"/></g><path d="M 188.70 605.70 L 323.10 605.70 L 324.90 606.40 L 325.60 608.20 L 325.40 611.70 L 324.10 613.00 L 188.70 613.20 L 187.00 612.50 L 186.20 610.70 L 186.40 607.20 L 187.80 605.90 L 188.70 605.70 Z" fill="#f7f8fa" fill-rule="evenodd" group-id="1,2,5" id="矩形备份-25" node-id="132" stroke="none" target-height="7.5" target-width="139.40001" target-x="186.2" target-y="605.7"/><path d="M 188.70 648.10 L 323.10 648.10 L 324.90 648.80 L 325.60 650.60 L 325.40 654.10 L 324.10 655.50 L 323.10 655.70 L 188.70 655.70 L 187.00 654.90 L 186.20 653.20 L 186.40 649.60 L 187.80 648.30 L 188.70 648.10 Z" fill="#f7f8fa" fill-rule="evenodd" group-id="1,2,5" id="矩形备份-117" node-id="133" stroke="none" target-height="7.6000366" target-width="139.40001" target-x="186.2" target-y="648.1"/><path d="M 188.70 605.70 L 285.30 605.70 L 287.00 606.40 L 287.80 608.20 L 287.60 611.70 L 286.20 613.00 L 188.70 613.20 L 187.00 612.50 L 186.20 610.70 L 186.40 607.20 L 187.80 605.90 L 188.70 605.70 Z" fill="url(#linearGradient-15)" fill-rule="evenodd" group-id="1,2,5" id="矩形备份-25" node-id="134" stroke="none" target-height="7.5" target-width="101.59999" target-x="186.2" target-y="605.7"/><path d="M 188.70 648.10 L 267.10 648.10 L 268.80 648.80 L 269.60 650.60 L 269.40 654.10 L 268.10 655.50 L 267.10 655.70 L 188.70 655.70 L 187.00 654.90 L 186.20 653.20 L 186.40 649.60 L 187.80 648.30 L 188.70 648.10 Z" fill="url(#linearGradient-16)" fill-rule="evenodd" group-id="1,2,5" id="矩形备份-118" node-id="135" stroke="none" target-height="7.6000366" target-width="83.40001" target-x="186.2" target-y="648.1"/><path d="M 188.70 587.50 L 227.10 587.70 L 228.50 589.00 L 228.70 590.00 L 228.70 597.10 L 228.50 598.10 L 227.10 599.40 L 187.80 599.40 L 186.40 598.10 L 186.20 597.10 L 186.20 590.00 L 187.00 588.20 L 188.70 587.50 Z" fill="#d8e0eb" fill-rule="evenodd" group-id="1,2,5" id="矩形" node-id="136" stroke="none" target-height="11.900024" target-width="42.5" target-x="186.2" target-y="587.5"/><path d="M 188.70 629.90 L 227.10 630.10 L 228.50 631.40 L 228.70 632.40 L 228.70 639.50 L 227.90 641.30 L 226.20 642.00 L 187.80 641.80 L 186.40 640.50 L 186.20 639.50 L 186.20 632.40 L 187.00 630.60 L 188.70 629.90 Z" fill="#d8e0eb" fill-rule="evenodd" group-id="1,2,5" id="矩形备份-119" node-id="137" stroke="none" target-height="12.099976" target-width="42.5" target-x="186.2" target-y="629.9"/><path d="M 325.60 571.60 L 326.20 571.80 L 326.40 572.30 L 326.20 572.90 L 325.60 573.10 L 186.20 573.10 L 185.70 572.90 L 185.50 572.30 L 185.70 571.80 L 186.20 571.60 L 325.60 571.60 Z" fill="#f7f8fa" fill-rule="nonzero" group-id="1,2,5" id="直线-11" node-id="138" stroke="none" target-height="1.5" target-width="140.9" target-x="185.5" target-y="571.6"/><path d="M 187.80 540.10 L 324.10 540.10 L 325.20 540.50 L 325.60 541.60 L 325.50 543.70 L 324.70 544.50 L 187.80 544.60 L 186.70 544.20 L 186.20 543.10 L 186.40 541.00 L 187.20 540.20 L 187.80 540.10 Z" fill="#dde5f0" fill-rule="evenodd" group-id="1,2,5" id="矩形备份-77" node-id="139" stroke="none" target-height="4.5" target-width="139.40001" target-x="186.2" target-y="540.1"/><path d="M 187.80 552.20 L 233.20 552.20 L 234.30 552.60 L 234.70 553.70 L 234.60 555.80 L 233.80 556.60 L 187.80 556.70 L 186.70 556.30 L 186.20 555.20 L 186.40 553.10 L 187.20 552.30 L 187.80 552.20 Z" fill="#dde5f0" fill-rule="evenodd" group-id="1,2,5" id="矩形备份-78" node-id="140" stroke="none" target-height="4.5" target-width="48.5" target-x="186.2" target-y="552.2"/><path d="M 240.80 552.20 L 324.10 552.20 L 325.20 552.60 L 325.60 553.70 L 325.50 555.80 L 324.70 556.60 L 240.80 556.70 L 239.70 556.30 L 239.30 555.20 L 239.40 553.10 L 239.70 552.60 L 240.80 552.20 Z" fill="#dde5f0" fill-rule="evenodd" group-id="1,2,5" id="矩形备份-80" node-id="141" stroke="none" target-height="4.5" target-width="86.3" target-x="239.3" target-y="552.2"/><path d="M 189.30 511.70 L 219.60 511.70 L 220.70 512.00 L 221.70 512.60 L 222.40 513.60 L 222.60 514.80 L 222.60 523.90 L 222.40 525.00 L 221.70 526.00 L 220.70 526.70 L 219.60 526.90 L 189.30 526.90 L 188.10 526.70 L 187.10 526.00 L 186.50 525.10 L 186.20 523.90 L 186.20 514.80 L 186.50 513.60 L 187.10 512.60 L 188.10 512.00 L 189.30 511.70 Z" fill="#0f5eff" fill-rule="evenodd" group-id="1,2,5" id="矩形备份-109" node-id="142" stroke="none" target-height="15.200012" target-width="36.40001" target-x="186.2" target-y="511.7"/><path d="M 255.90 485.90 L 256.50 486.10 L 256.70 486.60 L 256.50 488.50 L 255.90 488.70 L 255.40 488.50 L 255.20 487.90 L 255.20 486.60 L 255.40 486.10 L 255.90 485.90 Z M 255.90 479.80 L 256.50 480.00 L 256.70 480.60 L 256.50 484.10 L 255.90 484.30 L 255.40 484.10 L 255.20 483.60 L 255.20 480.60 L 255.40 480.00 L 255.90 479.80 Z M 255.90 473.70 L 256.50 474.00 L 256.70 474.50 L 256.50 478.10 L 255.90 478.30 L 255.40 478.10 L 255.20 477.50 L 255.20 474.50 L 255.40 474.00 L 255.90 473.70 Z M 255.90 467.70 L 256.50 467.90 L 256.70 468.40 L 256.50 472.00 L 255.90 472.20 L 255.40 472.00 L 255.20 471.50 L 255.20 468.40 L 255.40 467.90 L 255.90 467.70 Z M 255.30 462.20 L 255.60 461.70 L 256.20 461.60 L 256.70 461.90 L 256.70 465.40 L 256.50 465.90 L 255.90 466.20 L 255.40 465.90 L 255.20 465.40 L 255.30 462.20 Z M 260.50 458.00 L 261.00 458.20 L 261.20 458.70 L 261.00 459.30 L 257.50 460.50 L 257.00 460.20 L 256.90 459.70 L 257.20 459.20 L 258.70 458.30 L 260.50 458.00 Z M 284.70 458.00 L 285.30 458.20 L 285.50 458.70 L 285.30 459.30 L 284.70 459.50 L 281.70 459.50 L 281.20 459.30 L 280.90 458.70 L 281.20 458.20 L 281.70 458.00 L 284.70 458.00 Z M 278.70 458.00 L 279.20 458.20 L 279.40 458.70 L 279.20 459.30 L 278.70 459.50 L 275.60 459.50 L 275.10 459.30 L 274.90 458.70 L 275.10 458.20 L 275.60 458.00 L 278.70 458.00 Z M 272.60 458.00 L 273.10 458.20 L 273.40 458.70 L 273.10 459.30 L 272.60 459.50 L 269.60 459.50 L 269.00 459.30 L 268.80 458.70 L 269.00 458.20 L 269.60 458.00 L 272.60 458.00 Z M 266.50 458.00 L 267.10 458.20 L 267.30 458.70 L 267.10 459.30 L 266.50 459.50 L 263.50 459.50 L 263.00 459.30 L 262.80 458.70 L 263.00 458.20 L 263.50 458.00 L 266.50 458.00 Z" fill="#818b99" fill-rule="nonzero" group-id="1,2,5" id="路径-15" node-id="143" stroke="none" target-height="30.700012" target-width="30.300003" target-x="255.2" target-y="458"/><path d="M 260.50 492.50 L 260.30 493.70 L 259.20 495.70 L 257.20 496.90 L 255.90 497.00 L 253.60 496.40 L 252.00 494.80 L 251.60 493.70 L 251.40 492.50 L 252.00 490.20 L 253.60 488.60 L 255.90 487.90 L 257.20 488.10 L 259.20 489.30 L 260.30 491.30 L 260.50 492.50 Z" fill="#323842" fill-rule="evenodd" group-id="1,2,5" id="椭圆形" node-id="144" stroke="none" target-height="9.100006" target-width="9.100006" target-x="251.4" target-y="487.9"/><path d="M 255.90 487.20 L 257.40 487.40 L 259.70 488.70 L 261.00 491.00 L 261.20 492.50 L 260.50 495.20 L 258.60 497.10 L 257.40 497.60 L 255.90 497.80 L 253.30 497.10 L 251.40 495.20 L 250.60 492.50 L 250.80 491.00 L 252.20 488.70 L 254.50 487.40 L 255.90 487.20 Z M 255.90 488.70 L 254.50 489.00 L 253.30 489.80 L 252.50 491.00 L 252.20 492.50 L 252.50 494.00 L 253.30 495.20 L 254.50 496.00 L 255.90 496.30 L 257.40 496.00 L 258.60 495.20 L 259.40 494.00 L 259.70 492.50 L 259.40 491.00 L 258.60 489.80 L 257.40 489.00 L 255.90 488.70 Z" fill="#818b99" fill-rule="nonzero" group-id="1,2,5" id="椭圆形" node-id="145" stroke="none" target-height="10.599976" target-width="10.600006" target-x="250.6" target-y="487.2"/></g><g node-id="444"><g node-id="448"><g node-id="459"><path d="M 836.20 390.60 L 836.00 396.20 L 835.30 401.70 L 834.30 407.00 L 832.80 412.10 L 830.90 417.10 L 828.60 421.90 L 826.00 426.50 L 823.10 430.80 L 816.30 438.80 L 808.30 445.60 L 804.00 448.50 L 799.40 451.10 L 794.60 453.40 L 789.60 455.30 L 784.50 456.70 L 779.20 457.80 L 773.70 458.50 L 768.10 458.70 L 762.40 458.50 L 756.90 457.80 L 751.60 456.70 L 746.50 455.30 L 741.50 453.40 L 736.70 451.10 L 732.10 448.50 L 723.70 442.30 L 716.30 434.90 L 713.00 430.80 L 710.10 426.50 L 707.50 421.90 L 705.30 417.10 L 703.40 412.10 L 701.90 407.00 L 700.80 401.70 L 700.10 396.20 L 699.90 390.60 L 700.10 384.90 L 700.80 379.40 L 701.90 374.10 L 703.40 369.00 L 705.30 364.00 L 707.50 359.20 L 710.10 354.70 L 713.00 350.30 L 716.30 346.20 L 723.70 338.80 L 727.80 335.50 L 732.10 332.60 L 736.70 330.00 L 741.50 327.80 L 746.50 325.90 L 751.60 324.40 L 756.90 323.30 L 762.40 322.60 L 768.10 322.40 L 773.70 322.60 L 779.20 323.30 L 784.50 324.40 L 789.60 325.90 L 794.60 327.80 L 799.40 330.00 L 804.00 332.60 L 808.30 335.50 L 816.30 342.40 L 823.10 350.30 L 826.00 354.70 L 828.60 359.20 L 830.90 364.00 L 832.80 369.00 L 834.30 374.10 L 835.30 379.40 L 836.00 384.90 L 836.20 390.60 Z" fill="#000000" fill-rule="evenodd" filter="url(#filter-20)" group-id="1,2,6,10,21" node-id="432" stroke="none" target-height="136.30002" target-width="136.29999" target-x="699.9" target-y="322.4"/></g><path d="M 836.20 390.60 L 836.00 396.20 L 835.30 401.70 L 834.30 407.00 L 832.80 412.10 L 830.90 417.10 L 828.60 421.90 L 826.00 426.50 L 823.10 430.80 L 816.30 438.80 L 808.30 445.60 L 804.00 448.50 L 799.40 451.10 L 794.60 453.40 L 789.60 455.30 L 784.50 456.70 L 779.20 457.80 L 773.70 458.50 L 768.10 458.70 L 762.40 458.50 L 756.90 457.80 L 751.60 456.70 L 746.50 455.30 L 741.50 453.40 L 736.70 451.10 L 732.10 448.50 L 723.70 442.30 L 716.30 434.90 L 713.00 430.80 L 710.10 426.50 L 707.50 421.90 L 705.30 417.10 L 703.40 412.10 L 701.90 407.00 L 700.80 401.70 L 700.10 396.20 L 699.90 390.60 L 700.10 384.90 L 700.80 379.40 L 701.90 374.10 L 703.40 369.00 L 705.30 364.00 L 707.50 359.20 L 710.10 354.70 L 713.00 350.30 L 716.30 346.20 L 723.70 338.80 L 727.80 335.50 L 732.10 332.60 L 736.70 330.00 L 741.50 327.80 L 746.50 325.90 L 751.60 324.40 L 756.90 323.30 L 762.40 322.60 L 768.10 322.40 L 773.70 322.60 L 779.20 323.30 L 784.50 324.40 L 789.60 325.90 L 794.60 327.80 L 799.40 330.00 L 804.00 332.60 L 808.30 335.50 L 816.30 342.40 L 823.10 350.30 L 826.00 354.70 L 828.60 359.20 L 830.90 364.00 L 832.80 369.00 L 834.30 374.10 L 835.30 379.40 L 836.00 384.90 L 836.20 390.60 Z" fill="url(#linearGradient-17)" fill-rule="evenodd" group-id="1,2,6,10,22" node-id="437" stroke="none" target-height="136.30002" target-width="136.29999" target-x="699.9" target-y="322.4"/></g><g node-id="449"><path d="M 792.20 362.00 L 842.30 375.40 L 846.50 478.40 L 764.30 480.80 L 740.10 401.90 L 743.20 396.70 L 743.20 392.80 L 768.10 393.00 L 769.30 381.10 Z" fill="url(#linearGradient-21)" fill-rule="evenodd" group-id="1,2,6,11" id="路径-14" node-id="152" stroke="none" target-height="118.79999" target-width="106.400024" target-x="740.1" target-y="362"/></g><g node-id="450"><g node-id="461"><path d="M 791.10 361.80 L 745.00 361.80 L 743.50 362.00 L 741.00 363.50 L 740.10 364.60 L 739.50 366.00 L 739.30 367.50 L 739.30 399.20 L 740.10 402.10 L 742.10 404.20 L 743.50 404.70 L 745.00 405.00 L 791.10 405.00 L 792.70 404.70 L 795.20 403.30 L 796.60 400.80 L 796.80 399.20 L 796.80 367.50 L 796.60 366.00 L 795.20 363.50 L 792.70 362.00 L 791.10 361.80 Z M 786.80 419.30 L 748.00 419.20 L 746.80 418.70 L 745.10 417.00 L 744.50 414.50 L 745.10 412.10 L 746.80 410.40 L 748.00 409.90 L 788.20 409.90 L 789.30 410.40 L 791.00 412.10 L 791.70 414.50 L 791.50 415.80 L 790.30 417.90 L 788.20 419.20 L 786.80 419.30 Z" fill="url(#linearGradient-22)" fill-rule="evenodd" group-id="1,2,6,12,23" id="形状结合" node-id="155" stroke="none" target-height="57.5" target-width="57.5" target-x="739.3" target-y="361.8"/><path d="M 790.70 372.90 L 776.20 391.00 L 775.20 391.30 L 773.40 390.80 L 763.80 383.10 L 748.20 397.70 L 746.40 397.60 L 745.50 397.10 L 745.00 396.20 L 745.10 394.40 L 762.70 377.50 L 764.40 377.40 L 765.20 377.90 L 774.60 385.40 L 787.60 369.20 L 789.40 369.00 L 790.30 369.40 L 791.00 370.20 L 791.20 372.00 L 790.70 372.90 Z" fill="#ffffff" fill-rule="evenodd" group-id="1,2,6,12,23" id="路径" node-id="156" stroke="none" target-height="28.700012" target-width="46.200012" target-x="745" target-y="369"/></g></g></g><g node-id="445"><path d="M 836.20 305.70 L 836.00 307.80 L 835.20 309.60 L 834.00 311.10 L 832.50 312.30 L 830.70 313.00 L 828.70 313.30 L 826.60 313.00 L 824.80 312.30 L 823.30 311.10 L 822.10 309.60 L 821.40 307.80 L 821.10 305.70 L 821.40 303.70 L 822.10 301.90 L 823.30 300.40 L 824.80 299.20 L 826.60 298.40 L 828.70 298.20 L 830.70 298.40 L 832.50 299.20 L 834.00 300.40 L 835.20 301.90 L 836.00 303.70 L 836.20 305.70 Z" fill="#f5f7fa" fill-rule="evenodd" group-id="1,2,7" id="椭圆形" node-id="158" stroke="none" target-height="15.099976" target-width="15.100037" target-x="821.1" target-y="298.2"/><path d="M 801.40 295.10 L 801.20 296.30 L 800.50 297.30 L 799.60 297.90 L 798.40 298.20 L 797.20 297.90 L 796.20 297.30 L 795.60 296.30 L 795.30 295.10 L 795.60 293.90 L 796.20 293.00 L 797.20 292.30 L 798.40 292.10 L 799.60 292.30 L 800.50 293.00 L 801.20 293.90 L 801.40 295.10 Z" fill="#f5f7fa" fill-rule="evenodd" group-id="1,2,7" id="椭圆形备份-37" node-id="159" stroke="none" target-height="6.100006" target-width="6.1000366" target-x="795.3" target-y="292.1"/><path d="M 246.80 323.90 L 246.60 325.10 L 246.00 326.10 L 245.00 326.70 L 243.80 326.90 L 242.60 326.70 L 241.70 326.10 L 241.00 325.10 L 240.80 323.90 L 241.00 322.70 L 241.70 321.80 L 242.60 321.10 L 243.80 320.90 L 245.00 321.10 L 246.00 321.80 L 246.60 322.70 L 246.80 323.90 Z" fill="#f5f7fa" fill-rule="evenodd" group-id="1,2,7" id="椭圆形备份-38" node-id="160" stroke="none" target-height="6" target-width="6" target-x="240.8" target-y="320.9"/><path d="M 697.60 258.80 L 699.50 259.00 L 701.00 259.70 L 702.40 260.80 L 703.50 262.10 L 704.20 263.70 L 704.40 265.60 L 704.20 267.40 L 703.50 269.00 L 702.40 270.40 L 701.00 271.50 L 699.50 272.10 L 697.60 272.40 L 695.80 272.10 L 694.20 271.50 L 692.80 270.40 L 691.70 269.00 L 691.00 267.40 L 690.80 265.60 L 691.00 263.70 L 691.70 262.10 L 692.80 260.80 L 694.20 259.70 L 695.80 259.00 L 697.60 258.80 Z M 697.60 261.80 L 696.10 262.10 L 694.90 262.90 L 694.10 264.10 L 693.80 265.60 L 694.10 267.10 L 694.90 268.30 L 696.10 269.10 L 697.60 269.40 L 699.10 269.10 L 700.30 268.30 L 701.10 267.10 L 701.40 265.60 L 701.10 264.10 L 700.30 262.90 L 699.10 262.10 L 697.60 261.80 Z" fill="#f5f7fa" fill-rule="nonzero" group-id="1,2,7" id="椭圆形备份-36" node-id="161" stroke="none" target-height="13.600006" target-width="13.600037" target-x="690.8" target-y="258.8"/><path d="M 218.10 282.30 L 220.30 282.60 L 222.30 283.40 L 224.00 284.70 L 225.30 286.40 L 226.10 288.40 L 226.40 290.60 L 226.10 292.80 L 225.30 294.80 L 224.00 296.50 L 222.30 297.80 L 220.30 298.60 L 218.10 298.90 L 215.80 298.60 L 213.90 297.80 L 212.20 296.50 L 210.90 294.80 L 210.00 292.80 L 209.70 290.60 L 210.00 288.40 L 210.90 286.40 L 212.20 284.70 L 213.90 283.40 L 215.80 282.60 L 218.10 282.30 Z M 218.10 286.80 L 216.60 287.10 L 215.40 287.90 L 214.60 289.10 L 214.30 290.60 L 214.60 292.10 L 215.40 293.30 L 216.60 294.10 L 218.10 294.40 L 219.50 294.10 L 220.70 293.30 L 221.50 292.10 L 221.80 290.60 L 221.50 289.10 L 220.70 287.90 L 219.50 287.10 L 218.10 286.80 Z" fill="#f5f7fa" fill-rule="nonzero" group-id="1,2,7" id="椭圆形备份-34" node-id="162" stroke="none" target-height="16.600006" target-width="16.699997" target-x="209.7" target-y="282.3"/><path d="M 260.50 264.10 L 260.20 265.60 L 259.40 266.80 L 258.20 267.60 L 256.70 267.90 L 255.20 267.60 L 254.00 266.80 L 253.20 265.60 L 252.90 264.10 L 253.20 262.60 L 254.00 261.40 L 255.20 260.60 L 256.70 260.30 L 258.20 260.60 L 259.40 261.40 L 260.20 262.60 L 260.50 264.10 Z" fill="#f5f7fa" fill-rule="evenodd" group-id="1,2,7" id="椭圆形备份-35" node-id="163" stroke="none" target-height="7.600006" target-width="7.600006" target-x="252.9" target-y="260.3"/></g><path d="M 643.50 720.60 L 644.00 720.90 L 644.30 721.40 L 644.00 721.90 L 643.50 722.20 L 640.50 722.20 L 639.90 721.90 L 639.70 721.40 L 639.90 720.90 L 640.50 720.60 L 643.50 720.60 Z M 758.70 720.60 L 759.20 720.90 L 759.40 721.40 L 759.20 721.90 L 758.70 722.20 L 755.60 722.20 L 755.10 721.90 L 754.90 721.40 L 755.10 720.90 L 755.60 720.60 L 758.70 720.60 Z M 752.60 720.60 L 753.10 720.90 L 753.40 721.40 L 753.10 721.90 L 752.60 722.20 L 749.60 722.20 L 749.00 721.90 L 748.80 721.40 L 749.60 720.60 L 752.60 720.60 Z M 746.50 720.60 L 747.10 720.90 L 747.30 721.40 L 747.10 721.90 L 746.50 722.20 L 743.50 722.20 L 743.00 721.90 L 742.70 721.40 L 743.00 720.90 L 743.50 720.60 L 746.50 720.60 Z M 522.30 720.60 L 522.80 720.90 L 523.10 721.40 L 522.80 721.90 L 522.30 722.20 L 519.30 722.20 L 518.70 721.90 L 518.50 721.40 L 518.70 720.90 L 519.30 720.60 L 522.30 720.60 Z M 528.40 720.60 L 528.90 720.90 L 529.10 721.40 L 528.90 721.90 L 528.40 722.20 L 525.30 722.20 L 524.80 721.90 L 524.60 721.40 L 524.80 720.90 L 525.30 720.60 L 528.40 720.60 Z M 534.40 720.60 L 535.00 720.90 L 535.20 721.40 L 535.00 721.90 L 534.40 722.20 L 531.40 722.20 L 530.80 721.90 L 530.60 721.40 L 530.80 720.90 L 531.40 720.60 L 534.40 720.60 Z M 540.50 720.60 L 541.00 720.90 L 541.20 721.40 L 541.00 721.90 L 540.50 722.20 L 537.40 722.20 L 536.90 721.90 L 536.70 721.40 L 536.90 720.90 L 537.40 720.60 L 540.50 720.60 Z M 546.50 720.60 L 547.10 720.90 L 547.30 721.40 L 547.10 721.90 L 546.50 722.20 L 543.50 722.20 L 543.00 721.90 L 542.70 721.40 L 543.00 720.90 L 543.50 720.60 L 546.50 720.60 Z M 552.60 720.60 L 553.10 720.90 L 553.40 721.40 L 553.10 721.90 L 552.60 722.20 L 549.60 722.20 L 549.00 721.90 L 548.80 721.40 L 549.00 720.90 L 549.60 720.60 L 552.60 720.60 Z M 558.70 720.60 L 559.20 720.90 L 559.40 721.40 L 559.20 721.90 L 558.70 722.20 L 555.60 722.20 L 555.10 721.90 L 554.90 721.40 L 555.10 720.90 L 555.60 720.60 L 558.70 720.60 Z M 564.70 720.60 L 565.30 720.90 L 565.50 721.40 L 565.30 721.90 L 564.70 722.20 L 561.70 722.20 L 561.20 721.90 L 560.90 721.40 L 561.20 720.90 L 561.70 720.60 L 564.70 720.60 Z M 570.80 720.60 L 571.30 720.90 L 571.50 721.40 L 571.30 721.90 L 570.80 722.20 L 567.70 722.20 L 567.20 721.90 L 567.00 721.40 L 567.20 720.90 L 567.70 720.60 L 570.80 720.60 Z M 576.80 720.60 L 577.40 720.90 L 577.60 721.40 L 577.40 721.90 L 576.80 722.20 L 573.80 722.20 L 573.30 721.90 L 573.10 721.40 L 573.30 720.90 L 573.80 720.60 L 576.80 720.60 Z M 582.90 720.60 L 583.40 720.90 L 583.70 721.40 L 583.40 721.90 L 582.90 722.20 L 579.90 722.20 L 579.30 721.90 L 579.10 721.40 L 579.30 720.90 L 579.90 720.60 L 582.90 720.60 Z M 589.00 720.60 L 589.50 720.90 L 589.70 721.40 L 589.50 721.90 L 589.00 722.20 L 585.90 722.20 L 585.40 721.90 L 585.20 721.40 L 585.40 720.90 L 585.90 720.60 L 589.00 720.60 Z M 595.00 720.60 L 595.60 720.90 L 595.80 721.40 L 595.60 721.90 L 595.00 722.20 L 592.00 722.20 L 591.50 721.90 L 591.20 721.40 L 591.50 720.90 L 592.00 720.60 L 595.00 720.60 Z M 601.10 720.60 L 601.60 720.90 L 601.80 721.40 L 601.60 721.90 L 601.10 722.20 L 598.10 722.20 L 597.50 721.90 L 597.30 721.40 L 597.50 720.90 L 598.10 720.60 L 601.10 720.60 Z M 607.10 720.60 L 607.70 720.90 L 607.90 721.40 L 607.70 721.90 L 607.10 722.20 L 604.10 722.20 L 603.60 721.90 L 603.40 721.40 L 603.60 720.90 L 604.10 720.60 L 607.10 720.60 Z M 613.20 720.60 L 613.70 720.90 L 614.00 721.40 L 613.70 721.90 L 613.20 722.20 L 610.20 722.20 L 609.60 721.90 L 609.40 721.40 L 609.60 720.90 L 610.20 720.60 L 613.20 720.60 Z M 619.30 720.60 L 619.80 720.90 L 620.00 721.40 L 619.80 721.90 L 619.30 722.20 L 616.20 722.20 L 615.70 721.90 L 615.50 721.40 L 615.70 720.90 L 616.20 720.60 L 619.30 720.60 Z M 625.30 720.60 L 625.90 720.90 L 626.10 721.40 L 625.90 721.90 L 625.30 722.20 L 622.30 722.20 L 621.80 721.90 L 621.50 721.40 L 621.80 720.90 L 622.30 720.60 L 625.30 720.60 Z M 631.40 720.60 L 631.90 720.90 L 632.10 721.40 L 631.90 721.90 L 631.40 722.20 L 628.40 722.20 L 627.80 721.90 L 627.60 721.40 L 627.80 720.90 L 628.40 720.60 L 631.40 720.60 Z M 637.40 720.60 L 638.00 720.90 L 638.20 721.40 L 638.00 721.90 L 637.40 722.20 L 634.40 722.20 L 633.90 721.90 L 633.70 721.40 L 633.90 720.90 L 634.40 720.60 L 637.40 720.60 Z M 740.50 720.60 L 741.00 720.90 L 741.20 721.40 L 740.50 722.20 L 737.40 722.20 L 736.90 721.90 L 736.70 721.40 L 737.40 720.60 L 740.50 720.60 Z M 649.60 720.60 L 650.10 720.90 L 650.30 721.40 L 650.10 721.90 L 649.60 722.20 L 646.50 722.20 L 646.00 721.90 L 645.80 721.40 L 646.00 720.90 L 646.50 720.60 L 649.60 720.60 Z M 655.60 720.60 L 656.20 720.90 L 656.40 721.40 L 656.20 721.90 L 655.60 722.20 L 652.60 722.20 L 652.10 721.90 L 651.80 721.40 L 652.10 720.90 L 652.60 720.60 L 655.60 720.60 Z M 661.70 720.60 L 662.20 720.90 L 662.40 721.40 L 662.20 721.90 L 661.70 722.20 L 658.70 722.20 L 658.10 721.90 L 657.90 721.40 L 658.10 720.90 L 658.70 720.60 L 661.70 720.60 Z M 667.70 720.60 L 668.30 720.90 L 668.50 721.40 L 668.30 721.90 L 667.70 722.20 L 664.70 722.20 L 664.20 721.90 L 664.00 721.40 L 664.20 720.90 L 664.70 720.60 L 667.70 720.60 Z M 673.80 720.60 L 674.30 720.90 L 674.60 721.40 L 674.30 721.90 L 673.80 722.20 L 670.80 722.20 L 670.20 721.90 L 670.00 721.40 L 670.20 720.90 L 670.80 720.60 L 673.80 720.60 Z M 679.90 720.60 L 680.40 720.90 L 680.60 721.40 L 680.40 721.90 L 679.90 722.20 L 676.80 722.20 L 676.30 721.90 L 676.10 721.40 L 676.30 720.90 L 676.80 720.60 L 679.90 720.60 Z M 685.90 720.60 L 686.50 720.90 L 686.70 721.40 L 686.50 721.90 L 685.90 722.20 L 682.90 722.20 L 682.40 721.90 L 682.10 721.40 L 682.40 720.90 L 682.90 720.60 L 685.90 720.60 Z M 692.00 720.60 L 692.50 720.90 L 692.70 721.40 L 692.50 721.90 L 692.00 722.20 L 689.00 722.20 L 688.40 721.90 L 688.20 721.40 L 688.40 720.90 L 689.00 720.60 L 692.00 720.60 Z M 698.10 720.60 L 698.60 720.90 L 698.80 721.40 L 698.10 722.20 L 695.00 722.20 L 694.50 721.90 L 694.30 721.40 L 694.50 720.90 L 695.00 720.60 L 698.10 720.60 Z M 704.10 720.60 L 704.90 721.40 L 704.60 721.90 L 704.10 722.20 L 701.10 722.20 L 700.50 721.90 L 700.30 721.40 L 700.50 720.90 L 701.10 720.60 L 704.10 720.60 Z M 710.20 720.60 L 710.70 720.90 L 710.90 721.40 L 710.70 721.90 L 710.20 722.20 L 707.10 722.20 L 706.60 721.90 L 706.40 721.40 L 707.10 720.60 L 710.20 720.60 Z M 716.20 720.60 L 716.80 720.90 L 717.00 721.40 L 716.80 721.90 L 716.20 722.20 L 713.20 722.20 L 712.40 721.40 L 712.70 720.90 L 713.20 720.60 L 716.20 720.60 Z M 722.30 720.60 L 722.80 720.90 L 723.10 721.40 L 722.80 721.90 L 722.30 722.20 L 719.30 722.20 L 718.70 721.90 L 718.50 721.40 L 718.70 720.90 L 719.30 720.60 L 722.30 720.60 Z M 728.40 720.60 L 728.90 720.90 L 729.10 721.40 L 728.40 722.20 L 725.30 722.20 L 724.80 721.90 L 724.60 721.40 L 724.80 720.90 L 725.30 720.60 L 728.40 720.60 Z M 734.40 720.60 L 735.20 721.40 L 735.00 721.90 L 734.40 722.20 L 731.40 722.20 L 730.60 721.40 L 730.80 720.90 L 731.40 720.60 L 734.40 720.60 Z M 764.10 719.60 L 764.70 719.50 L 765.20 719.80 L 764.90 720.90 L 763.40 721.60 L 761.80 722.10 L 761.20 721.90 L 760.90 721.40 L 761.10 720.90 L 764.10 719.60 Z M 512.90 719.40 L 513.40 719.10 L 514.00 719.30 L 516.40 720.50 L 516.90 720.80 L 517.00 721.40 L 516.70 721.80 L 516.10 721.90 L 514.50 721.40 L 513.10 720.50 L 512.80 720.00 L 512.90 719.40 Z M 768.00 714.60 L 768.50 714.90 L 768.70 715.50 L 768.20 717.10 L 766.90 718.90 L 766.30 718.70 L 766.00 718.30 L 766.10 717.70 L 767.20 715.20 L 767.50 714.70 L 768.00 714.60 Z M 510.40 714.00 L 511.00 714.10 L 511.30 714.60 L 512.20 717.20 L 512.20 717.80 L 511.90 718.30 L 511.30 718.30 L 510.80 718.00 L 510.20 716.50 L 509.80 714.80 L 509.90 714.30 L 510.40 714.00 Z M 768.10 708.50 L 768.60 708.80 L 768.80 709.30 L 768.80 712.30 L 768.60 712.90 L 768.10 713.10 L 767.50 712.90 L 767.30 712.30 L 767.30 709.30 L 767.50 708.80 L 768.10 708.50 Z M 510.50 707.90 L 511.00 708.10 L 511.20 708.70 L 511.20 711.70 L 511.00 712.20 L 510.50 712.50 L 509.90 712.20 L 509.70 711.70 L 509.70 708.70 L 509.90 708.10 L 510.50 707.90 Z M 768.10 702.50 L 768.60 702.70 L 768.80 703.20 L 768.60 706.80 L 768.10 707.00 L 767.50 706.80 L 767.30 706.30 L 767.30 703.20 L 768.10 702.50 Z M 510.50 701.90 L 511.00 702.10 L 511.20 702.60 L 511.20 705.60 L 511.00 706.20 L 510.50 706.40 L 509.90 706.20 L 509.70 705.60 L 509.70 702.60 L 509.90 702.10 L 510.50 701.90 Z" fill="#f5f7fa" fill-rule="nonzero" group-id="1,2" id="路径-4" node-id="164" stroke="none" target-height="20.299988" target-width="259.09998" target-x="509.7" target-y="701.9"/><path d="M 898.40 700.30 L 898.90 700.60 L 899.10 701.10 L 898.40 701.90 L 128.70 701.90 L 128.10 701.60 L 127.90 701.10 L 128.10 700.60 L 128.70 700.30 L 898.40 700.30 Z" fill="#d8e0eb" fill-rule="nonzero" group-id="1,2" id="直线备份" node-id="165" stroke="none" target-height="1.6000366" target-width="771.19995" target-x="127.9" target-y="700.3"/></g></g></svg>
